# xmcd
# 
# Track frame offsets:
#     150
#     17415
#     31215
#     64034
#     88841
#     106760
#     129104
#     147647
# 
# Disc length: 2426
# 
# Revision: 0
# Processed by: cddbd v1.5.2PL0 Copyright (c) Steve Scherf et al.
# Submitted via: fre:ac v1.0.17
# 
DISCID=5f097808
DTITLE=Molly Hatchet - Live
DYEAR=0
DGENRE=Southern Rock
TTITLE0=Whiskey Man
TTITLE1=Bounty Hunter
TTITLE2=Gator Country
TTITLE3=Flirtin' With Diaster
TTITLE4=Stone in Your Heart
TTITLE5=Satisfied Man
TTITLE6=Bloody Reunion
TTITLE7=Boogie No More
EXTD=from LP
EXTT0=
EXTT1=
EXTT2=
EXTT3=
EXTT4=
EXTT5=
EXTT6=
EXTT7=
PLAYORDER=
